<svg xmlns="http://www.w3.org/2000/svg" xmlns:xlink="http://www.w3.org/1999/xlink" width="500" zoomAndPan="magnify" viewBox="0 0 375 374.999991" height="500" preserveAspectRatio="xMidYMid meet" version="1.0"><defs><g/><clipPath id="a395c7e41e"><path d="M 84.054688 186 L 109 186 L 109 208 L 84.054688 208 Z M 84.054688 186 " clip-rule="nonzero"/></clipPath><clipPath id="8d502a82b3"><path d="M 106 200 L 137 200 L 137 226.441406 L 106 226.441406 Z M 106 200 " clip-rule="nonzero"/></clipPath><clipPath id="3fb9d6af39"><path d="M 132 143.941406 L 172.554688 143.941406 L 172.554688 178 L 132 178 Z M 132 143.941406 " clip-rule="nonzero"/></clipPath></defs><g clip-path="url(#a395c7e41e)"><path fill="#cb6ce6" d="M 102.785156 186.457031 L 108.925781 197.054688 L 102.785156 207.683594 L 90.535156 207.683594 L 84.394531 197.054688 L 90.535156 186.457031 Z M 102.785156 186.457031 " fill-opacity="1" fill-rule="nonzero"/></g><path fill="#91ce3e" d="M 128.910156 167.371094 L 136.382812 180.285156 L 128.910156 193.203125 L 114.027344 193.203125 L 106.550781 180.285156 L 114.023438 167.367188 Z M 128.910156 167.371094 " fill-opacity="1" fill-rule="nonzero"/><g clip-path="url(#8d502a82b3)"><path fill="#fdb913" d="M 128.648438 200.820312 L 136.09375 213.738281 L 128.648438 226.65625 L 113.734375 226.65625 L 106.261719 213.738281 L 113.734375 200.820312 Z M 128.648438 200.820312 " fill-opacity="1" fill-rule="nonzero"/></g><g clip-path="url(#3fb9d6af39)"><path fill="#38b6ff" d="M 162.21875 143.9375 L 172.035156 160.941406 L 162.21875 177.972656 L 142.554688 177.972656 L 132.734375 160.941406 L 142.554688 143.9375 Z M 162.21875 143.9375 " fill-opacity="1" fill-rule="nonzero"/></g><g fill="#38b6ff" fill-opacity="1"><g transform="translate(141.500971, 220.022477)"><g><path d="M 25.9375 -23.0625 C 24.175781 -24.09375 22.296875 -24.9375 20.296875 -25.59375 C 18.304688 -26.257812 16.640625 -26.59375 15.296875 -26.59375 C 14.222656 -26.59375 13.378906 -26.394531 12.765625 -26 C 12.160156 -25.601562 11.859375 -25.03125 11.859375 -24.28125 C 11.859375 -23.5625 12.125 -22.957031 12.65625 -22.46875 C 13.1875 -21.988281 13.84375 -21.597656 14.625 -21.296875 C 15.414062 -20.992188 16.582031 -20.609375 18.125 -20.140625 C 20.40625 -19.484375 22.289062 -18.820312 23.78125 -18.15625 C 25.28125 -17.5 26.5625 -16.488281 27.625 -15.125 C 28.6875 -13.757812 29.21875 -11.976562 29.21875 -9.78125 C 29.21875 -7.59375 28.640625 -5.71875 27.484375 -4.15625 C 26.328125 -2.601562 24.734375 -1.4375 22.703125 -0.65625 C 20.679688 0.125 18.429688 0.515625 15.953125 0.515625 C 13.222656 0.515625 10.5 0.0351562 7.78125 -0.921875 C 5.070312 -1.878906 2.726562 -3.1875 0.75 -4.84375 L 4.09375 -11.578125 C 5.757812 -10.097656 7.726562 -8.890625 10 -7.953125 C 12.269531 -7.015625 14.285156 -6.546875 16.046875 -6.546875 C 17.335938 -6.546875 18.347656 -6.78125 19.078125 -7.25 C 19.816406 -7.71875 20.1875 -8.40625 20.1875 -9.3125 C 20.1875 -10.070312 19.910156 -10.703125 19.359375 -11.203125 C 18.816406 -11.703125 18.128906 -12.097656 17.296875 -12.390625 C 16.460938 -12.691406 15.296875 -13.046875 13.796875 -13.453125 C 11.535156 -14.085938 9.664062 -14.722656 8.1875 -15.359375 C 6.71875 -16.003906 5.457031 -16.976562 4.40625 -18.28125 C 3.351562 -19.582031 2.828125 -21.316406 2.828125 -23.484375 C 2.828125 -25.523438 3.367188 -27.3125 4.453125 -28.84375 C 5.535156 -30.382812 7.070312 -31.570312 9.0625 -32.40625 C 11.050781 -33.238281 13.363281 -33.65625 16 -33.65625 C 18.382812 -33.65625 20.738281 -33.316406 23.0625 -32.640625 C 25.382812 -31.960938 27.421875 -31.0625 29.171875 -29.9375 Z M 25.9375 -23.0625 "/></g></g></g><g fill="#38b6ff" fill-opacity="1"><g transform="translate(173.307542, 220.022477)"><g><path d="M 11.578125 -21.21875 C 12.453125 -22.695312 13.585938 -23.828125 14.984375 -24.609375 C 16.378906 -25.398438 17.972656 -25.796875 19.765625 -25.796875 L 19.765625 -18.125 C 19.484375 -18.15625 19.0625 -18.171875 18.5 -18.171875 C 16.519531 -18.171875 14.914062 -17.707031 13.6875 -16.78125 C 12.46875 -15.851562 11.765625 -14.585938 11.578125 -12.984375 L 11.578125 0 L 3.203125 0 L 3.203125 -25.453125 L 11.578125 -25.453125 Z M 11.578125 -21.21875 "/></g></g></g><g fill="#38b6ff" fill-opacity="1"><g transform="translate(194.951153, 220.022477)"><g><path d="M 3.203125 0 L 3.203125 -25.453125 L 11.53125 -25.453125 L 11.53125 0 Z M 7.375 -37.171875 C 8.664062 -37.171875 9.726562 -36.753906 10.5625 -35.921875 C 11.394531 -35.097656 11.8125 -34.023438 11.8125 -32.703125 C 11.8125 -31.421875 11.394531 -30.351562 10.5625 -29.5 C 9.726562 -28.65625 8.664062 -28.234375 7.375 -28.234375 C 6.09375 -28.234375 5.035156 -28.65625 4.203125 -29.5 C 3.367188 -30.351562 2.953125 -31.421875 2.953125 -32.703125 C 2.953125 -34.023438 3.367188 -35.097656 4.203125 -35.921875 C 5.035156 -36.753906 6.09375 -37.171875 7.375 -37.171875 Z M 7.375 -37.171875 "/></g></g></g><g fill="#38b6ff" fill-opacity="1"><g transform="translate(211.08981, 220.022477)"><g><path d="M 0.328125 -25.890625 L 0.328125 -32.984375 L 28.609375 -32.984375 L 28.609375 -25.890625 L 18.734375 -25.890625 L 18.734375 0 L 10.125 0 L 10.125 -25.890625 Z M 0.328125 -25.890625 "/></g></g></g><g fill="#38b6ff" fill-opacity="1"><g transform="translate(241.390765, 220.022477)"><g><path d="M 14.40625 -25.75 C 18.539062 -25.75 21.722656 -24.523438 23.953125 -22.078125 C 26.179688 -19.628906 27.296875 -16.269531 27.296875 -12 C 27.296875 -11.34375 27.28125 -10.84375 27.25 -10.5 L 9.546875 -10.5 C 9.960938 -9.050781 10.671875 -7.941406 11.671875 -7.171875 C 12.671875 -6.410156 13.894531 -6.03125 15.34375 -6.03125 C 16.4375 -6.03125 17.492188 -6.25 18.515625 -6.6875 C 19.535156 -7.125 20.46875 -7.765625 21.3125 -8.609375 L 25.703125 -4.234375 C 24.378906 -2.765625 22.785156 -1.644531 20.921875 -0.875 C 19.054688 -0.101562 16.945312 0.28125 14.59375 0.28125 C 11.863281 0.28125 9.476562 -0.25 7.4375 -1.3125 C 5.394531 -2.382812 3.832031 -3.890625 2.75 -5.828125 C 1.664062 -7.773438 1.125 -10.035156 1.125 -12.609375 C 1.125 -15.210938 1.671875 -17.507812 2.765625 -19.5 C 3.867188 -21.5 5.425781 -23.039062 7.4375 -24.125 C 9.445312 -25.207031 11.769531 -25.75 14.40625 -25.75 Z M 19.15625 -14.96875 C 19.15625 -16.4375 18.722656 -17.617188 17.859375 -18.515625 C 16.992188 -19.410156 15.859375 -19.859375 14.453125 -19.859375 C 13.128906 -19.859375 12.019531 -19.414062 11.125 -18.53125 C 10.226562 -17.65625 9.640625 -16.46875 9.359375 -14.96875 Z M 19.15625 -14.96875 "/></g></g></g><g fill="#38b6ff" fill-opacity="1"><g transform="translate(271.174161, 220.022477)"><g><path d="M 3.4375 0 L 3.4375 -34.921875 L 11.8125 -34.921875 L 11.8125 0 Z M 3.4375 0 "/></g></g></g></svg>